<svg width="24" height="28" viewBox="0 0 24 28" fill="none" xmlns="http://www.w3.org/2000/svg">
<path d="M12.0001 27.8341C13.6001 27.8341 14.9092 26.5897 14.9092 25.0687H9.09098C9.09098 26.5897 10.4001 27.8341 12.0001 27.8341ZM20.7273 19.5379V12.6243C20.7273 8.37933 18.3564 4.82575 14.1819 3.88551V2.94526C14.1819 1.79761 13.2073 0.871185 12.0001 0.871185C10.7928 0.871185 9.81825 1.79761 9.81825 2.94526V3.88551C5.65825 4.82575 3.2728 8.36551 3.2728 12.6243V19.5379L0.363708 22.3033V23.686H23.6364V22.3033L20.7273 19.5379ZM17.8183 20.9206H6.18189V12.6243C6.18189 9.19514 8.37825 6.40205 12.0001 6.40205C15.6219 6.40205 17.8183 9.19514 17.8183 12.6243V20.9206Z" fill="#E7E7E5"/>
</svg>
